/* XPM */
static char *fbea7f2febec4554c0121383b778e9a5TKSyAV0TXdMDZcnf[] = {
/* columns rows colors chars-per-pixel */
"32 32 96 2 ",
"   c None",
".  c #0037A5",
"X  c #003BA6",
"o  c #003FA8",
"O  c #0044AA",
"+  c #004AAD",
"@  c #094EAF",
"#  c #0D52B1",
"$  c #1255B2",
"%  c #1957B3",
"&  c #1659B3",
"*  c #1C5BB4",
"=  c #215EB5",
"-  c #2461B7",
";  c #2563B9",
":  c #2A64B9",
">  c #2C68BA",
",  c #3267B7",
"<  c #336BBC",
"1  c #386FBD",
"2  c #3B71BE",
"3  c #4374BF",
"4  c #3A73C0",
"5  c #4277C1",
"6  c #457BC3",
"7  c #4B7CC4",
"8  c #5583C7",
"9  c #5B87C9",
"0  c #5C8ACA",
"q  c #628ECC",
"w  c #6490CD",
"e  c #6C92CE",
"r  c #6F97D0",
"t  c #7599D1",
"y  c #799BD2",
"u  c #7DA0D4",
"i  c #809ED3",
"p  c #83A4D6",
"a  c #8CA7D7",
"s  c #86A9D8",
"d  c #8DACD9",
"f  c #91AEDA",
"g  c #97B2DC",
"h  c #94B3DC",
"j  c #96B4DD",
"k  c #97B4DD",
"l  c #93B1DC",
"z  c #9AB3DD",
"x  c #98B5DD",
"c  c #99B5DD",
"v  c #9BB5DD",
"b  c #98B6DD",
"n  c #99B6DD",
"m  c #98B6DE",
"M  c #9BB7DE",
"N  c #9CB6DD",
"B  c #9CB7DE",
"V  c #9EB7DE",
"C  c #9BB9DF",
"Z  c #9EBADF",
"A  c #9EB9E0",
"S  c #A3BBE0",
"D  c #A3BDE1",
"F  c #A4BDE1",
"G  c #A6BDE1",
"H  c #A7BFE1",
"J  c #A6C0E2",
"K  c #A9C0E2",
"L  c #AAC3E3",
"P  c #ADC2E4",
"I  c #AEC4E4",
"U  c #AEC5E4",
"Y  c #B1C7E6",
"T  c #B3C8E6",
"R  c #B8CCE8",
"E  c #B9CDE8",
"W  c #BECEE9",
"Q  c #BCD0E9",
"!  c #C1D1EA",
"~  c #C3D0EA",
"^  c #C8D3EB",
"/  c #CED8ED",
"(  c #D1DEF0",
")  c #DBE4F3",
"_  c #DCE5F3",
"`  c #DFE9F5",
"'  c #E4ECF6",
"]  c #E5ECF6",
"[  c #E7EEF7",
"{  c #ECF1F8",
"}  c #F6F9FC",
"|  c #F7F9FC",
" . c #FCFDFE",
".. c #FCFEFE",
"X. c #FDFEFF",
"o. c white",
/* pixels */
"                              ; ;                               ",
"                    , ; O O O O O O + O * <                     ",
"                - + O + e h d f f d h q O O @ -                 ",
"              # O < Z p & o O O O O . ; l k * + $               ",
"          3 O + G 9 X + + + + + + + + + + X t B O @             ",
"        < + = P O + + + + + + + + + + + + + + + R @ +           ",
"        O : z o + + + + + + + + + + + + + + + + X R $ +         ",
"      @ # G O + + + + + + + + + + + + + + + + + + o E O $       ",
"    - o T o + O + + + + + + + + + + + + * t 8 + + + O K O -     ",
"    O q - O s h h f O + + + + + + + + . 2 o.~ O o O + 0 < +     ",
"  * o B O o ] o.o.} o + + + + + + O f o.o.o.o.o.} v : X K O *   ",
"  @ 7 4 + O ] o.o.} X + + + + + o ( o.o.o.o.o.o.o.o.; + t & #   ",
"  O h X + O ] o.o.} X + + + + + ; o.o.o.[ h A ) o.( O + + p +   ",
"* O d O + o ] o.o.} o + + + + + 2 o.o.o.t O O O @ < + + o k O   ",
"= . f + + o ] o.o.} X + + + + + & o.o.o.o.Y 7 o + + + + O h O = ",
"$ + p + + o ] o.o.} X + + + + + O E o.o.o.o.o.o.y o + + + v . = ",
"# @ p + + o ] o.o.} X + + + + + + O z o.o.o.o.o.o._ O + + k . - ",
"& o a + + o ] o.o.} X + + + + + + + O @ p } o.o.o.o.e + + C o % ",
"- X d + + O ] o.o.} X + + + + + * @ O + + X w o.o.o.D O O h O = ",
"  O f O + o ] o.o.} X + O O O + 2 o.E e ; # 8 o.o.o.f + X v O   ",
"  O u @ + o ] o.o.o.~ ^ ^ ^ / > 1 o.o.o.o.o.o.o.o.o., + 2 8 O   ",
"  $ + p + O ] o.o.o.o.o.o.o.o.< ; o.o.o.o.o.o.o.o.q O + v o *   ",
"  : + B o o { ..o.o.o.o.o.o.o.2 + o 7 i T o.` e @ + + @ d +     ",
"    @ @ f + < 4 4 4 4 1 4 4 4 # + + + + < o.W O + + O U O #     ",
"    2 + e < + + + + + + + + + + + + + + % e 7 + + + 0 6 O       ",
"      & O G % + + + + + + + + + + + + + + + + + + < p + ;       ",
"        $ o Y : + + + + + + + + + + + + + + + O 8 d O #         ",
"          @ o u p o + + + + + + + + + + + + o S 8 O #           ",
"            $ + % J e o + + + + + + + O O y G @ + &             ",
"              , @ O * C k a 8 6 5 0 d v g # + @ 2               ",
"                  * @ + O O > 6 6 > O O + $ -                   ",
"                        % # # # # $ # $                         "
};
