/* XPM */
static char *_dc565c595494a9fbaf4dbc6d2d8f0abI8LXz6i0al7yrBAl[] = {
/* columns rows colors chars-per-pixel */
"16 16 120 2 ",
"   c None",
".  c #0035A4",
"X  c #0039A5",
"o  c #003CA7",
"O  c #003DA7",
"+  c #003DA8",
"@  c #003FA8",
"#  c #0040A8",
"$  c #0040A9",
"%  c #0041A9",
"&  c #0042A9",
"*  c #0043AA",
"=  c #0044AA",
"-  c #0045AB",
";  c #0046AB",
":  c #0047AC",
">  c #0447AC",
",  c #0048AC",
"<  c #0049AD",
"1  c #0348AC",
"2  c #0349AC",
"3  c #0249AD",
"4  c #004AAD",
"5  c #014BAD",
"6  c #024AAD",
"7  c #024BAD",
"8  c #044BAD",
"9  c #054BAD",
"0  c #024CAE",
"q  c #034CAE",
"w  c #054CAE",
"e  c #064DAF",
"r  c #064EAE",
"t  c #074EAE",
"y  c #064EAF",
"u  c #084FAE",
"i  c #0950AF",
"p  c #0B51B0",
"a  c #0D52B1",
"s  c #0F53B1",
"d  c #0F54B2",
"f  c #1054B1",
"g  c #1256B1",
"h  c #1356B2",
"j  c #1658B3",
"k  c #1759B3",
"l  c #1758B4",
"z  c #195BB5",
"x  c #1B5BB5",
"c  c #1C5BB4",
"v  c #1D5CB5",
"b  c #2060B7",
"n  c #2362B8",
"m  c #2463B8",
"M  c #2463B9",
"N  c #2664B9",
"B  c #2964B9",
"V  c #2865B9",
"C  c #2965B9",
"Z  c #2A66BA",
"A  c #2E69BB",
"S  c #2F6ABB",
"D  c #316BBC",
"F  c #326CBD",
"G  c #346DBD",
"H  c #3970BE",
"J  c #3E74C0",
"K  c #4076C1",
"L  c #4377C1",
"P  c #4179C2",
"I  c #4278C2",
"U  c #437AC3",
"Y  c #4679C2",
"T  c #467AC3",
"R  c #477BC3",
"E  c #4A7CC3",
"W  c #4B7CC3",
"Q  c #487DC4",
"!  c #497DC4",
"~  c #4A7CC4",
"^  c #4B7DC4",
"/  c #4B7EC5",
"(  c #4B7FC5",
")  c #4C7DC4",
"_  c #4C7EC5",
"`  c #4D7EC5",
"'  c #4E7FC5",
"]  c #4C80C5",
"[  c #4F80C5",
"{  c #4C80C6",
"}  c #4E80C6",
"|  c #5082C6",
" . c #5183C7",
".. c #5284C7",
"X. c #5484C8",
"o. c #5887C8",
"O. c #5D8ACA",
"+. c #6590CD",
"@. c #6994CE",
"#. c #6A94CF",
"$. c #779ED3",
"%. c #7FA0D4",
"&. c #7EA1D4",
"*. c #90AEDA",
"=. c #92B0DB",
"-. c #93B0DB",
";. c #A1BCE1",
":. c #A2BDE1",
">. c #A4BEE2",
",. c #ADC4E4",
"<. c #C7D6ED",
"1. c #E8EDF7",
"2. c #EAEEF7",
"3. c #ECEFF8",
"4. c #EEF3F9",
"5. c #F1F4FA",
"6. c #F7F8FC",
"7. c #F8FAFD",
"8. c #FAFBFD",
"9. c white",
/* pixels */
"            w 0 0 w             ",
"        a { E Y Y _ [ w         ",
"    c G K % 6 6 6 6 % ^ A       ",
"    H x 6 6 6 6 6 6 6 ; m D     ",
"  l F P P : 6 6 6 X *.H % Y p   ",
"  _ X 9.9.+ 6 6 m 4.8.9.6.6  .  ",
"6 Y % 8.9.+ 6 : :.9.#...*.; _ 6 ",
"9 Y % 8.9.+ 6 6 $.9.8.-.i 6 { 2 ",
"w K + 8.9.+ 6 6 % #.1.9.9.a [ : ",
"9 ^ % 8.9.. % % +.K % ,.9.^ _ 6 ",
"i ^ o 8.9.1.4.*.:.9.9.9.4.; [   ",
"  C j :.>.>.>.+.% C <.&.; A b   ",
"  h o.; : : : 6 6 6 v d w ..j   ",
"    6 O.x 6 6 6 6 6 : M X.9     ",
"      f S _ ^ m m ^ [ C h       ",
"          w 6 m m : u           "
};
