/* XPM */
static char *e62b945c8e2c4457e8f45dfa22d21a38MGAfs1slFfuEi5c6[] = {
/* columns rows colors chars-per-pixel */
"64 64 133 2 ",
"   c None",
".  c #0036A4",
"X  c #003CA7",
"o  c #003FA8",
"O  c #0044AA",
"+  c #004AAD",
"@  c #0A4EAF",
"#  c #084FB0",
"$  c #0D52B1",
"%  c #1255B2",
"&  c #1659B4",
"*  c #1C5DB5",
"=  c #1E5DB8",
"-  c #235FB5",
";  c #1F60B7",
":  c #2361B7",
">  c #2A64B6",
",  c #2363B8",
"<  c #2A65B9",
"1  c #2D69BB",
"2  c #336DBC",
"3  c #386FBD",
"4  c #3770BE",
"5  c #3B72BE",
"6  c #4072BE",
"7  c #4678BA",
"8  c #3D75C0",
"9  c #4276C1",
"0  c #4479C2",
"q  c #4B7DC4",
"w  c #4F81C6",
"e  c #5282C6",
"r  c #5984C7",
"t  c #5F8AC4",
"y  c #5686C8",
"u  c #5A86C8",
"i  c #5788C9",
"p  c #5D8ACA",
"a  c #638DCB",
"s  c #6B8ECC",
"d  c #6790C7",
"f  c #6691CD",
"g  c #6B93CE",
"h  c #7297CF",
"j  c #7498CD",
"k  c #6E97D0",
"l  c #6D98D0",
"z  c #7397D0",
"x  c #7A97D0",
"c  c #749AD1",
"v  c #7B9DD2",
"b  c #7DA1D4",
"n  c #809DD3",
"m  c #82A5D6",
"M  c #85A8D7",
"N  c #87A9D8",
"B  c #8BACD9",
"V  c #90AFDA",
"C  c #98AEDA",
"Z  c #94B2DC",
"A  c #9AB5DD",
"S  c #9DB9DF",
"D  c #9EBAE0",
"F  c #A4BDE1",
"G  c #A7C0E2",
"H  c #ABC2E4",
"J  c #B1C7E6",
"K  c #B3C9E6",
"L  c #B4C8E6",
"P  c #B4C9E6",
"I  c #B4CAE7",
"U  c #B4C9E6",
"Y  c #B8CBE7",
"T  c #B8CCE8",
"R  c #B8CDE8",
"E  c #BCCFE9",
"W  c #BACEE8",
"Q  c #BED0EA",
"!  c #BFD2EB",
"~  c #BED1EB",
"^  c #C0D2EB",
"/  c #C3D4EB",
"(  c #C4D5EC",
")  c #C5D6EC",
"_  c #C6D6ED",
"`  c #C2D4EB",
"'  c #C7D8EC",
"]  c #C9D9ED",
"[  c #C9D9EE",
"{  c #CCDAEE",
"}  c #CFDCEF",
"|  c #CBDAEE",
" . c #CFDDF0",
".. c #D1DEF0",
"X. c #D3E0F0",
"o. c #D4E0F1",
"O. c #D7E3F2",
"+. c #D4E0F0",
"@. c #D8E3F2",
"#. c #D9E5F3",
"$. c #DBE5F3",
"%. c #DBE6F3",
"&. c #DCE6F4",
"*. c #DAE5F3",
"=. c #DEE8F4",
"-. c #DFE9F5",
";. c #DDE8F4",
":. c #E0E9F5",
">. c #E3ECF6",
",. c #E6EDF7",
"<. c #E4ECF6",
"1. c #E8EFF7",
"2. c #E8EFF8",
"3. c #E8F0F8",
"4. c #E9F0F8",
"5. c #EBF1F8",
"6. c #ECF2F9",
"7. c #EDF2F9",
"8. c #EEF3FA",
"9. c #ECF2F9",
"0. c #F0F5FA",
"q. c #F2F6FB",
"w. c #F3F7FB",
"e. c #F1F5FB",
"r. c #F7F9FC",
"t. c #F8FAFD",
"y. c #F8FBFD",
"u. c #FAFCFD",
"i. c #FDFDFE",
"p. c #FDFEFE",
"a. c #FEFEFE",
"s. c white",
"d. c #FFFFFF",
/* pixels */
"                                                                                                                                ",
"                                                    9 5 : 4 , , , , 2 1 0 9                                                     ",
"                                            e 3 O O + + + + + + + + + + + + O @ 2 y                                             ",
"                                        2 O + + + + + + + + + + + + + + + + + + + + O 4                                         ",
"                                  u & + + + + + + O O 5 p v B B B N z e 1 o O + + + + + O &                                     ",
"                                % + + + + + o 0 Z q.d.{ S m c h z v M H :.d.$.m 1 X + + O + + >                                 ",
"                            5 O + + + O - D d./ g * X O O + + + + + + + o X 2 m 5.d.v + + + + + O w                             ",
"                          % + + + + - ! d.g + + + + + + + + + + + + + + + + + + X : Z d.A @ + + + + =                           ",
"                      j + + + + + F d.u X + + + + + + + + + + + + + + + + + + + + + + + N d.c o + + + $                         ",
"                    q O + + O 5 d.m o + + + + + + + + + + + + + + + + + + + + + + + + + + # / <.& + + + +                       ",
"                  4 O + + o B w.= + + + + + + + + + + + + + + + + + + + + + + + + + + + + + o y d.q O + + +                     ",
"                u O + + O ] ! O + + + + + + + + + + + + + + + + + + + + + + + + + + + + + + + + & w.v O + + +                   ",
"                O + + O &.Z O + + + + + + + + + + + + + + + + + + + + + + + + + + + + + + + + + + @ ,.Z O + + @                 ",
"              $ + + O $.B O + + + + + + + + + + + + + + + + + + + + + + + + + + + + + + + + + + + + O >.B O + + :               ",
"            , + + o W F O + + + + + + + + + + + + + + + + + + + + + + + + + + + + + + + + + + + + + + + 8.a + + + 0             ",
"          e + + + h ..o + + + + + + + + + + + + + + + + + + + + + + + + + + + + + + + + + + + + + + + + % d.> + + O c           ",
"          + + + : d.+ + + + + + + + + + + + + + + + + + + + + + + + + + + + + + + O X X o O + + + + + + + 9 d.O + + &           ",
"        2 + + o 7.8 + + + + + + + + + + + + + + + + + + + + + + + + + + + + + + + x 7.7.7.a + + + + + + + O F A + + + 6         ",
"        O + + k P O + + * , , , : , , * + + + + + + + + + + + + + + + + + + + + + n d.d.d.g + + + + + + + + O d.: + + @         ",
"      3 + + O d.@ + + O E d.d.d.d.d.d.*.O + + + + + + + + + + + + + + + + + O . , C d.d.d.B 2 + X + + + + + + p ] O + + <       ",
"      O + + b C + + + O P d.d.d.d.d.d.o.O + + + + + + + + + + + + + + + X r I d.d.d.d.d.d.d.d.d.y.F p O + + + X u.2 + + %       ",
"    1 + + o d.# + + + + P d.d.d.d.d.d.o.O + + + + + + + + + + + + + + : 5.d.d.d.d.d.d.d.d.d.d.d.d.d.d.d.H O + + f T O + +       ",
"    * + + y I O + + + O P d.d.d.d.d.d...o + + + + + + + + + + + + + : d.d.d.d.d.d.d.d.d.d.d.d.d.d.d.d.d.A + + + O d.# + + 3     ",
"    O + O ! q + + + + O P d.d.d.d.d.d...O + + + + + + + + + + + + o -.d.d.d.d.d.d.d.d.d.d.d.d.d.d.d.d.d.& + + + + D c + + +     ",
"  0 + + O d.o + + + + + P d.d.d.d.d.d.X.O + + + + + + + + + + + + 1 d.d.d.d.d.d.d.d.d.d.d.d.d.d.d.d.d.( O + + + + 0 @.O + O     ",
"  1 + + q T O + + + + O P d.d.d.d.d.d.X.o + + + + + + + + + + + + v d.d.d.d.d.d.d.m 3 = 1 9 m ( d.d.d.r + + + + + o d.+ + + 9   ",
"  % + + N c + + + + + O P d.d.d.d.d.d.X.O + + + + + + + + + + + + m d.d.d.d.d.d.2.X + + + + + O O f  .X + + + + + O } 0 + + 1   ",
"  O + O ' 2 + + + + + O P d.d.d.d.d.d.X.O + + + + + + + + + + + + m d.d.d.d.d.d.d.- + + + + + + + + O + + + + + + + N v + + %   ",
"  O + X d.+ + + + + + + P d.d.d.d.d.d.X.O + + + + + + + + + + + + g d.d.d.d.d.d.d.d.S & o + + + + + + + + + + + + + p H + + O   ",
"w + + O d.X + + + + + O P d.d.d.d.d.d.X.O + + + + + + + + + + + + * d.d.d.d.d.d.d.d.d.d.@.s + + + + + + + + + + + + 3 @.O + O   ",
"3 + + $ r.o + + + + + O P d.d.d.d.d.d.X.O + + + + + + + + + + + + O ^ d.d.d.d.d.d.d.d.d.d.d.d.H < O + + + + + + + + & y.o + +   ",
", + + = 5.X + + + + + + P d.d.d.d.d.d.X.o + + + + + + + + + + + + + @ y.d.d.d.d.d.d.d.d.d.d.d.d.d.Y @ + + + + + + + $ d.X + O   ",
", + + , 1.o + + + + + O P d.d.d.d.d.d.X.O + + + + + + + + + + + + + + % :.d.d.d.d.d.d.d.d.d.d.d.d.d.d.: + + + + + + $ d.X + O v ",
", + + = 7.O + + + + + + P d.d.d.d.d.d.X.X + + + + + + + + + + + + + + + X c d.d.d.d.d.d.d.d.d.d.d.d.d.d.$ + + + + + $ d.X O O   ",
"4 + + $ w.X + + + + + O P d.d.d.d.d.d...O + + + + + + + + + + + + + + + + + O a 2.d.d.d.d.d.d.d.d.d.d.d.H + + + + + = y.o + +   ",
"w O + O d.o + + + + + O P d.d.d.d.d.d...O + + + + + + + + + + + + + + + + + + + o * A d.d.d.d.d.d.d.d.d.d.o + + + + 4 @.O + O   ",
"  + + X d.+ + + + + + O P d.d.d.d.d.d.X.O + + + + + + + + + + + + O + + + + + + + + + o g d.d.d.d.d.d.d.d.3 + + + + a H + + O   ",
"  O + O ' 4 + + + + + + P d.d.d.d.d.d.X.O + + + + + + + + + + + + k a o + + + + + + + + + 5 d.d.d.d.d.d.d.8 + + + + B b + + $   ",
"  @ + + N v + + + + + O P d.d.d.d.d.d.X.O + + + + + + + + + + + + m d.d.A 4 X O + + + + + , d.d.d.d.d.d.d.3 + + + O o.9 + + 1   ",
"  1 + + 0 ! O + + + + O P d.d.d.d.d.d.X.+ + + + + + + + + + + + + b d.d.d.d.d.T v w 8 4 g ,.d.d.d.d.d.d.d.O + + + O d.O + + 6   ",
"  5 + + O d.O + + + + O P d.d.d.d.d.d.,.x n n n n n n n n n 6 + + b d.d.d.d.d.d.d.d.d.d.d.d.d.d.d.d.d.d.^ O + + + q ..O + +     ",
"    O + O T q + + + + O P d.d.d.d.d.d.d.d.d.d.d.d.d.d.d.d.d.n + + m d.d.d.d.d.d.d.d.d.d.d.d.d.d.d.d.d.d.> + + + + F z + + +     ",
"    * + + e ^ O + + + + P d.d.d.d.d.d.d.d.d.d.d.d.d.d.d.d.d.n + + m d.d.d.d.d.d.d.d.d.d.d.d.d.d.d.d.d.p + + + + O d.@ + + 2     ",
"    < + + o d.% + + + O P d.d.d.d.d.d.d.d.d.d.d.d.d.d.d.d.d.m + + 5 :.d.d.d.d.d.d.d.d.d.d.d.d.d.d.d.0 + + + + + h J O + O       ",
"      O + + v S + + + O P d.d.d.d.d.d.d.d.d.d.d.d.d.d.d.d.d.n + + + X = c / d.d.d.d.d.d.d.d.d.( a O + + + + + X d.1 + + %       ",
"      3 + + O d.% + + O P d.d.d.d.d.d.d.d.d.d.d.d.d.d.d.d.d.m + + + + + + O X O 2 A d.d.d.h . O + + + + + + + g ^ O + + ,       ",
"        O + + g ^ O + + p m m m m m M m m m m m m m m m m m 9 + + + + + + + + + + n i.d.d.s + + + + + + + + + d.- + + @         ",
"        3 + + X ,.w + + + + + + + + + + + + + + + + + + + + + + + + + + + + + + + v d.d.d.g + + + + + + + O J A + + + 0         ",
"          + + + - d.@ + + + + + + + + + + + + + + + + + + + + + + + + + + + + + + s ....X.r + + + + + + + e w.O + + $           ",
"          0 + + + f <.O + + + + + + + + + + + + + + + + + + + + + + + + + + + + + O O O O O + + + + + + * d., + + O d           ",
"            = + + o H W O O + + + + + + + + + + + + + + + + + + + + + + + + + + + + + + + + + + + + + @ d.y + + + 2             ",
"              @ + + O ..F O + + + + + + + + + + + + + + + + + + + + + + + + + + + + + + + + + + + O @ 0.m O + + %               ",
"              g O + + O $.J O + + + + + + + + + + + + + + + + + + + + + + + + + + + + + + + + + + $ 0.B O + + @                 ",
"                e O + + O / @.O + + + + + + + + + + + + + + + + + + + + + + + + + + + + + + + + < d.b O + + O                   ",
"                  9 O + + O B d.2 O + + + + + + + + + + + + + + + + + + + + + + + + + + + + X v d.q O + + O i                   ",
"                    9 O + + O 4 d.S + + + + + + + + + + + + + + + + + + + + + + + + + + + = #.$.% + + + +                       ",
"                      g O + + + O S d.c O + + + + + + + + + + + + + + + + + + + + + O $ F d.g O + + + $                         ",
"                          % + + + + % L i.M % o + + + + + + + + + + + + + + + + X 3 H d.B + + + + + =                           ",
"                            2 O + + + O % N d.&.b 1 O X + + + + + + + O X + 0 Z d.5.h O O + + + O q                             ",
"                              g & + + + + + o 5 B ,.d.5.P Z m b b N S / d.d.} v : O + + + + O >                                 ",
"                                  q & + + + + + + O O 1 r v m B N m h w ; O O + + + + + O * a                                   ",
"                                      7 , O + + + + + + + + + + + + + + + + + + + + + 2                                         ",
"                                            3 * O O + + + + + + + + + + + + O + : 5                                             ",
"                                                    & > = : & & & * , - : 1                                                     "
};
