<?xml version="1.0" standalone="no"?>
<!DOCTYPE svg PUBLIC "-//W3C//DTD SVG 20010904//EN"
 "http://www.w3.org/TR/2001/REC-SVG-20010904/DTD/svg10.dtd">
<svg version="1.0" xmlns="http://www.w3.org/2000/svg"
 width="1024.000000pt" height="1024.000000pt" viewBox="0 0 1024.000000 1024.000000"
 preserveAspectRatio="xMidYMid meet">

<g transform="translate(0.000000,1024.000000) scale(0.100000,-0.100000)"
fill="#000000" stroke="none">
<path d="M5565 10045 c-16 -10 -51 -10 -160 -3 -147 10 -667 3 -795 -11 -268
-30 -369 -43 -400 -55 -19 -8 -67 -17 -105 -21 -39 -4 -82 -13 -96 -21 -14 -7
-54 -16 -90 -20 -35 -4 -73 -13 -84 -20 -11 -7 -42 -16 -70 -19 -27 -4 -59
-13 -71 -20 -11 -7 -42 -16 -67 -20 -25 -4 -52 -13 -58 -21 -6 -8 -28 -14 -48
-14 -20 0 -51 -9 -69 -20 -18 -11 -42 -20 -54 -20 -11 0 -35 -9 -52 -19 -17
-11 -48 -22 -68 -26 -21 -4 -42 -13 -49 -21 -6 -8 -18 -14 -26 -14 -13 0 -71
-24 -158 -65 -16 -8 -41 -19 -55 -25 -14 -5 -32 -14 -40 -19 -8 -5 -26 -14
-40 -20 -14 -6 -32 -15 -40 -20 -8 -5 -26 -14 -40 -20 -14 -6 -32 -15 -40 -20
-8 -5 -26 -14 -40 -20 -43 -19 -159 -86 -172 -99 -6 -6 -17 -12 -22 -12 -6 0
-37 -18 -69 -40 -31 -22 -60 -40 -63 -40 -3 0 -17 -9 -31 -20 -14 -11 -31 -20
-38 -20 -7 0 -29 -15 -50 -34 -20 -19 -50 -40 -66 -46 -16 -7 -29 -16 -29 -20
0 -5 -20 -20 -45 -34 -24 -15 -56 -37 -69 -49 -14 -12 -37 -31 -51 -42 -14
-11 -33 -27 -43 -36 -9 -9 -24 -20 -33 -25 -75 -41 -462 -403 -597 -559 -89
-102 -166 -188 -184 -204 -10 -8 -18 -21 -18 -27 0 -7 -18 -31 -40 -54 -22
-23 -40 -47 -40 -54 0 -7 -8 -21 -18 -32 -9 -10 -34 -44 -55 -74 -21 -30 -60
-86 -87 -125 -28 -38 -50 -75 -50 -81 0 -6 -7 -18 -16 -25 -9 -7 -20 -22 -26
-34 -5 -11 -20 -38 -33 -60 -14 -22 -32 -53 -41 -70 -8 -16 -26 -48 -40 -70
-13 -22 -31 -54 -39 -72 -8 -17 -19 -34 -24 -37 -5 -4 -12 -19 -16 -35 -3 -16
-12 -35 -20 -41 -8 -6 -17 -24 -20 -40 -3 -16 -12 -34 -20 -40 -8 -6 -17 -24
-20 -40 -3 -16 -12 -34 -20 -40 -8 -6 -17 -24 -20 -40 -3 -15 -15 -45 -26 -66
-10 -21 -19 -43 -19 -50 0 -6 -6 -17 -14 -23 -8 -7 -17 -28 -21 -49 -3 -20
-12 -46 -19 -57 -8 -11 -17 -36 -21 -55 -4 -19 -13 -44 -21 -55 -7 -11 -16
-38 -20 -60 -3 -22 -12 -47 -19 -55 -7 -8 -16 -35 -20 -60 -4 -25 -11 -50 -15
-55 -14 -18 -40 -99 -40 -127 0 -15 -4 -29 -9 -32 -5 -3 -12 -32 -16 -63 -4
-32 -13 -69 -20 -83 -7 -14 -16 -54 -20 -90 -4 -36 -13 -77 -21 -91 -7 -14
-16 -66 -20 -115 -4 -49 -13 -102 -22 -119 -9 -19 -18 -79 -23 -170 -4 -77
-12 -162 -18 -190 -16 -81 -14 -736 3 -825 8 -41 17 -124 21 -185 3 -60 13
-132 21 -159 8 -27 14 -77 14 -110 0 -37 8 -77 19 -101 10 -23 21 -68 25 -100
4 -33 16 -87 27 -119 10 -33 19 -70 19 -83 0 -13 6 -34 14 -46 8 -12 17 -42
21 -67 4 -25 13 -54 19 -65 7 -11 16 -39 20 -63 3 -24 13 -53 20 -65 8 -12 17
-41 21 -64 4 -23 13 -47 21 -54 8 -6 14 -21 14 -33 0 -12 9 -39 19 -60 11 -21
23 -52 27 -69 3 -18 12 -39 19 -47 7 -8 16 -29 20 -47 3 -17 13 -37 20 -43 8
-7 17 -27 21 -46 3 -18 12 -38 20 -45 8 -6 14 -18 14 -26 0 -13 91 -192 161
-318 16 -27 35 -63 44 -80 8 -16 26 -48 40 -70 13 -22 29 -50 36 -63 7 -12 16
-22 20 -22 5 0 16 -15 24 -32 21 -45 41 -78 54 -91 6 -6 11 -21 11 -32 0 -13
10 -26 24 -33 13 -6 27 -20 31 -31 3 -12 10 -21 16 -21 5 0 15 -15 22 -32 8
-18 28 -48 46 -67 17 -18 31 -37 31 -42 0 -4 9 -13 20 -19 11 -6 20 -16 20
-21 0 -13 61 -90 137 -173 6 -7 35 -42 64 -77 61 -75 341 -355 383 -384 16
-11 41 -31 56 -45 119 -109 204 -180 217 -180 5 0 16 -8 25 -17 9 -10 27 -26
40 -35 13 -10 46 -35 73 -56 28 -22 60 -42 73 -46 12 -4 27 -16 32 -27 6 -10
17 -19 25 -19 7 0 20 -6 27 -12 19 -19 93 -68 101 -68 4 0 29 -15 55 -33 26
-18 74 -48 107 -67 33 -18 62 -37 65 -40 3 -4 16 -11 30 -15 14 -4 32 -13 40
-20 8 -8 26 -18 40 -24 14 -6 32 -15 40 -21 8 -5 26 -14 40 -20 14 -5 32 -14
40 -19 32 -19 126 -61 136 -61 6 0 19 -9 29 -20 10 -11 30 -20 45 -20 15 0 33
-6 39 -14 7 -8 25 -18 41 -21 15 -3 45 -15 66 -26 21 -10 45 -19 54 -19 9 0
24 -6 35 -14 11 -7 36 -17 55 -21 19 -4 42 -13 50 -20 8 -7 35 -16 60 -20 24
-4 54 -13 65 -21 11 -7 38 -16 60 -20 22 -3 47 -12 55 -19 8 -7 42 -16 75 -21
33 -4 69 -13 80 -20 11 -7 47 -16 80 -20 33 -3 70 -12 82 -20 11 -7 52 -16 90
-20 37 -4 80 -13 94 -20 14 -7 66 -16 115 -19 49 -4 112 -13 139 -21 167 -49
1247 -48 1385 1 24 8 66 15 94 15 28 1 71 5 96 11 46 11 105 22 175 34 22 4
54 13 70 20 17 7 57 16 90 20 33 4 67 13 76 21 8 7 28 13 45 13 39 -1 86 11
104 26 8 7 35 16 60 20 25 4 52 13 60 20 8 7 34 15 58 18 24 3 51 12 60 20 9
8 33 18 52 22 19 4 44 13 55 20 11 7 35 15 54 19 19 3 43 13 53 22 10 10 26
14 39 11 16 -4 27 1 41 18 10 13 33 27 51 30 17 4 39 13 47 20 8 7 29 16 47
20 17 3 37 13 44 21 6 8 19 14 29 14 9 0 28 9 42 19 13 11 36 23 51 26 14 4
31 13 38 21 6 8 18 14 27 14 8 0 40 17 71 37 55 37 86 55 146 87 17 9 44 25
60 36 32 21 89 55 134 80 27 15 45 29 82 62 10 10 21 18 24 18 2 0 24 14 47
30 24 17 67 46 96 65 28 19 52 38 52 43 0 4 22 21 50 37 27 16 53 37 56 47 3
10 12 18 20 18 8 0 17 7 20 15 4 9 17 21 30 28 62 32 424 388 552 541 41 50
80 96 86 103 6 7 19 23 28 35 10 13 38 49 63 80 25 31 45 61 45 67 0 6 4 11 9
11 8 0 31 32 68 93 6 11 15 22 20 26 13 9 77 103 95 141 7 14 26 43 43 65 17
22 36 52 43 67 6 15 24 46 39 70 32 49 88 154 133 248 17 36 35 72 40 80 14
24 56 110 85 175 15 33 35 78 46 101 10 22 19 45 19 50 0 5 9 27 20 49 11 22
20 49 20 61 0 12 6 27 14 33 7 6 17 30 20 53 4 24 13 49 20 58 7 8 16 34 20
58 4 24 13 53 20 65 8 12 18 45 21 72 4 28 13 57 20 65 7 8 16 40 19 70 4 30
13 64 20 75 7 11 16 46 20 78 3 32 13 75 22 95 8 20 18 73 21 117 3 44 12 93
20 109 9 17 17 70 20 130 2 56 9 115 15 131 19 59 27 232 27 574 0 336 -7 458
-27 531 -6 19 -13 84 -16 143 -3 59 -12 120 -20 135 -7 15 -16 65 -19 111 -4
46 -13 94 -21 106 -8 11 -17 52 -21 91 -4 38 -13 78 -20 89 -7 11 -16 45 -20
75 -4 30 -13 64 -20 75 -8 11 -17 43 -20 70 -4 28 -13 57 -20 65 -7 8 -16 35
-20 60 -4 25 -13 54 -20 65 -7 11 -16 36 -20 55 -4 19 -13 44 -20 55 -7 11
-16 36 -20 55 -4 19 -14 43 -23 53 -13 15 -14 22 -4 38 11 17 9 23 -18 45 -16
14 -30 32 -30 41 0 14 -42 113 -61 143 -5 8 -14 26 -19 40 -6 14 -15 32 -20
40 -6 8 -15 26 -20 40 -6 14 -15 32 -20 40 -6 8 -15 26 -20 40 -15 35 -17 40
-45 85 -13 22 -31 54 -39 70 -9 17 -27 48 -40 70 -14 22 -31 55 -40 73 -8 17
-20 32 -25 32 -6 0 -11 5 -11 12 0 15 -184 288 -261 386 -33 42 -70 90 -82
106 -32 42 -89 107 -114 132 -13 12 -23 27 -23 33 0 14 -360 376 -439 441 -30
25 -67 57 -83 72 -15 15 -54 47 -86 70 -31 24 -63 48 -69 53 -7 6 -24 19 -39
30 -14 11 -34 27 -43 35 -9 8 -50 37 -91 65 -41 27 -78 53 -81 58 -5 8 -56 40
-165 107 -32 19 -69 44 -83 56 -28 23 -72 48 -111 64 -14 6 -43 22 -65 35 -22
14 -55 32 -74 41 -18 8 -63 33 -98 55 -36 21 -69 36 -74 33 -5 -3 -21 4 -35
15 -15 12 -33 21 -41 21 -8 0 -27 6 -41 14 -42 23 -140 66 -149 66 -5 0 -26 9
-48 20 -22 11 -44 20 -50 20 -6 0 -28 9 -50 20 -22 11 -47 20 -57 20 -10 0
-29 6 -41 14 -12 8 -40 17 -62 21 -22 3 -49 12 -60 19 -11 7 -37 16 -59 20
-21 4 -52 13 -70 20 -50 21 -101 36 -124 36 -11 0 -23 4 -26 9 -3 4 -35 11
-72 15 -37 4 -78 13 -93 20 -14 8 -57 17 -96 21 -38 4 -86 14 -105 22 -19 8
-87 19 -150 24 -127 9 -249 32 -259 47 -4 6 -13 5 -26 -3z m-215 -516 c129 -6
269 -17 310 -25 41 -8 98 -14 125 -14 28 0 75 -7 105 -15 30 -9 91 -22 135
-30 44 -8 94 -18 110 -24 38 -13 134 -38 205 -55 59 -14 144 -40 200 -61 19
-7 67 -24 105 -38 107 -39 207 -78 224 -87 9 -5 39 -19 66 -31 93 -41 270
-129 340 -169 39 -22 81 -46 95 -52 22 -12 199 -125 225 -145 6 -5 44 -31 85
-58 41 -28 81 -56 90 -63 8 -7 65 -52 125 -99 61 -47 112 -89 115 -92 3 -3 34
-31 70 -61 85 -71 341 -327 410 -410 30 -36 57 -67 60 -70 45 -40 320 -426
380 -532 42 -75 122 -215 130 -228 9 -13 126 -251 165 -335 21 -43 84 -201
104 -260 55 -157 72 -209 95 -295 15 -52 33 -115 40 -140 8 -25 17 -67 21 -95
4 -27 12 -68 20 -90 7 -22 16 -69 20 -105 4 -36 13 -87 20 -115 7 -27 16 -88
20 -135 3 -47 13 -139 21 -205 30 -253 8 -823 -41 -1045 -8 -36 -17 -90 -21
-120 -3 -30 -12 -75 -19 -100 -8 -25 -16 -65 -20 -90 -3 -25 -13 -65 -21 -90
-7 -25 -21 -72 -29 -105 -33 -125 -45 -163 -85 -275 -24 -63 -49 -133 -57
-155 -7 -22 -20 -53 -28 -70 -7 -16 -23 -51 -34 -78 -12 -26 -30 -66 -40 -90
-11 -23 -25 -53 -30 -67 -6 -14 -15 -32 -21 -40 -5 -8 -14 -26 -20 -40 -5 -14
-14 -32 -20 -40 -5 -8 -15 -26 -20 -40 -6 -14 -21 -43 -35 -65 -14 -22 -32
-53 -40 -70 -8 -16 -26 -48 -40 -70 -13 -22 -31 -55 -40 -72 -8 -18 -19 -33
-24 -33 -6 0 -13 -10 -17 -22 -7 -24 -27 -54 -86 -131 -21 -27 -38 -54 -38
-61 0 -6 -8 -19 -17 -28 -10 -9 -26 -27 -35 -40 -27 -37 -190 -240 -223 -278
-182 -209 -384 -402 -587 -561 -165 -129 -203 -156 -226 -163 -12 -4 -22 -11
-22 -16 0 -9 -58 -47 -102 -67 -16 -6 -28 -16 -28 -22 0 -5 -10 -13 -22 -17
-12 -3 -42 -21 -67 -38 -25 -17 -57 -37 -71 -44 -14 -6 -32 -16 -40 -22 -8 -5
-26 -15 -40 -21 -14 -5 -43 -21 -65 -33 -91 -54 -326 -166 -347 -166 -8 0 -18
-4 -23 -9 -10 -9 -96 -44 -180 -74 -22 -8 -71 -26 -110 -39 -82 -30 -174 -58
-305 -93 -52 -14 -117 -32 -145 -39 -27 -8 -70 -17 -95 -21 -25 -4 -67 -13
-95 -20 -27 -8 -84 -17 -125 -20 -41 -4 -109 -14 -150 -23 -111 -25 -953 -25
-1080 0 -47 9 -116 20 -155 23 -38 4 -92 13 -120 20 -27 7 -70 16 -95 20 -25
4 -67 13 -95 21 -27 7 -93 25 -145 39 -123 33 -226 63 -270 80 -19 7 -60 21
-90 32 -140 51 -226 86 -235 94 -5 5 -15 9 -23 9 -21 0 -256 112 -347 166 -22
12 -51 28 -65 33 -14 6 -32 16 -40 21 -8 6 -26 16 -40 22 -14 7 -46 27 -71 44
-25 17 -55 35 -67 38 -12 4 -22 12 -22 17 0 6 -12 16 -27 22 -45 20 -103 58
-103 67 0 5 -10 12 -22 16 -23 7 -61 34 -226 163 -289 227 -590 539 -810 839
-9 13 -25 31 -34 40 -10 9 -18 22 -18 28 0 6 -20 38 -45 70 -25 31 -45 62 -45
67 0 5 -8 19 -17 32 -10 12 -24 31 -30 41 -7 11 -24 37 -39 58 -14 22 -30 49
-35 60 -6 12 -21 39 -34 61 -14 22 -32 54 -40 70 -8 17 -20 37 -25 45 -6 8
-14 26 -20 40 -5 14 -14 32 -20 40 -5 8 -14 26 -20 40 -5 14 -14 32 -20 40
-13 21 -90 188 -90 197 0 4 -9 25 -19 47 -23 47 -32 72 -94 251 -59 169 -84
251 -92 300 -4 21 -13 51 -20 65 -7 14 -16 51 -20 84 -4 32 -12 75 -19 95 -7
20 -17 67 -21 105 -4 38 -13 85 -20 105 -7 20 -15 83 -19 141 -4 58 -14 154
-22 214 -19 147 -19 550 0 693 8 59 18 151 21 203 3 52 13 118 20 145 8 28 17
82 21 120 4 39 12 84 19 101 7 17 16 55 19 85 4 30 14 74 21 99 8 25 26 88 41
140 26 97 54 182 99 305 14 39 31 84 36 100 6 17 17 44 24 60 8 17 24 53 36
80 53 122 148 310 213 423 39 68 77 134 84 147 45 86 307 452 379 531 15 17
44 51 63 75 50 62 289 302 395 396 87 77 264 221 315 256 14 9 57 39 95 67 39
27 77 54 85 60 161 107 218 144 235 151 11 5 52 27 90 49 73 42 255 132 340
169 28 13 57 26 66 31 17 9 117 48 224 87 39 14 86 31 105 38 60 22 163 53
200 60 19 3 51 12 70 20 43 16 150 42 250 61 41 7 100 20 130 29 30 8 77 15
104 15 27 0 86 7 130 15 69 13 302 28 511 33 33 1 166 -3 295 -9z"/>
<path d="M4715 9354 c-211 -19 -569 -85 -731 -135 -33 -11 -69 -19 -80 -19
-10 -1 -37 -8 -59 -16 -22 -8 -60 -22 -85 -29 -96 -30 -146 -47 -170 -60 -14
-7 -41 -16 -60 -20 -19 -4 -44 -14 -55 -21 -11 -8 -26 -14 -34 -14 -7 0 -50
-18 -95 -39 -44 -22 -93 -43 -109 -46 -15 -4 -29 -11 -32 -15 -3 -4 -35 -22
-72 -40 -88 -43 -263 -143 -333 -192 -30 -21 -60 -38 -67 -38 -6 0 -13 -3 -15
-7 -3 -8 -35 -31 -158 -114 -35 -24 -72 -51 -81 -59 -34 -31 -102 -85 -118
-95 -10 -5 -35 -26 -56 -45 -21 -19 -66 -60 -99 -90 -144 -130 -387 -386 -466
-490 -19 -25 -37 -47 -40 -50 -8 -7 -51 -63 -75 -95 -82 -113 -118 -165 -135
-197 -11 -21 -25 -38 -30 -38 -5 0 -12 -10 -16 -22 -3 -12 -22 -43 -40 -69
-18 -26 -36 -60 -40 -74 -4 -15 -12 -29 -19 -32 -7 -2 -16 -16 -20 -31 -4 -15
-15 -35 -26 -45 -10 -10 -19 -25 -19 -33 0 -9 -9 -27 -20 -41 -11 -14 -20 -32
-20 -40 0 -8 -9 -26 -20 -40 -11 -14 -20 -34 -20 -43 0 -10 -7 -23 -15 -30 -8
-7 -17 -27 -21 -46 -3 -18 -12 -38 -19 -44 -8 -6 -17 -24 -20 -40 -3 -15 -15
-45 -26 -66 -10 -21 -19 -44 -19 -52 0 -8 -7 -26 -15 -40 -15 -28 -36 -84 -60
-162 -22 -70 -45 -142 -56 -175 -6 -16 -17 -58 -25 -93 -8 -35 -18 -71 -23
-80 -5 -9 -12 -39 -15 -67 -4 -27 -13 -70 -21 -95 -8 -25 -19 -81 -25 -125 -6
-44 -14 -93 -19 -110 -50 -165 -47 -1106 4 -1315 7 -30 17 -84 20 -120 4 -35
13 -80 20 -100 7 -19 16 -60 20 -90 4 -30 11 -63 16 -72 5 -9 15 -45 23 -80 8
-35 19 -76 25 -93 11 -33 34 -105 56 -175 24 -78 45 -134 60 -162 8 -14 15
-32 15 -38 0 -7 9 -34 21 -59 11 -25 29 -64 39 -86 10 -22 22 -51 25 -65 4
-14 13 -32 20 -40 7 -8 16 -26 20 -40 4 -14 13 -32 20 -40 7 -8 16 -26 20 -40
4 -14 13 -32 20 -40 7 -8 16 -26 20 -40 4 -14 13 -28 19 -32 6 -4 15 -20 21
-35 15 -42 223 -367 263 -413 8 -8 33 -42 58 -75 24 -33 50 -67 56 -75 7 -8
45 -54 85 -103 146 -179 379 -408 581 -571 7 -6 21 -18 30 -27 23 -21 130
-100 210 -156 37 -26 69 -50 70 -55 2 -4 9 -8 16 -8 7 0 21 -9 31 -20 10 -11
23 -20 28 -20 5 0 35 -17 66 -37 61 -41 102 -65 140 -83 13 -5 35 -19 49 -30
13 -11 31 -20 39 -20 8 0 26 -9 40 -20 14 -11 32 -20 40 -20 8 0 26 -9 40 -20
14 -11 32 -20 40 -20 8 0 26 -9 40 -20 14 -11 34 -20 43 -20 10 0 23 -6 29
-14 7 -8 24 -17 39 -20 15 -4 45 -15 67 -26 22 -10 67 -29 100 -41 33 -11 74
-28 91 -36 17 -8 46 -18 65 -23 35 -9 111 -33 164 -51 64 -23 173 -51 248 -64
42 -8 82 -17 87 -20 11 -7 203 -42 305 -55 308 -40 337 -42 665 -37 246 4 361
10 475 25 168 23 370 58 385 67 5 3 45 12 87 20 76 13 148 32 283 74 106 33
163 52 195 66 17 7 57 23 90 34 64 23 127 51 185 81 19 9 49 21 67 24 17 4 37
13 43 21 6 8 25 17 41 20 17 4 33 13 36 21 3 7 21 16 40 20 19 4 37 12 40 20
2 7 18 16 34 19 16 4 32 11 35 17 4 5 21 17 38 25 47 23 84 44 161 94 39 26
84 53 102 62 17 9 33 20 35 24 1 5 23 21 48 38 58 39 246 181 285 215 17 15
55 49 85 76 251 222 538 539 675 744 16 25 47 67 67 93 21 27 38 53 38 57 0 5
27 49 60 98 33 48 60 96 60 105 0 9 6 20 13 24 7 4 37 55 66 113 29 58 59 116
67 130 7 14 14 32 14 41 0 9 7 22 15 29 8 7 15 17 15 23 0 6 9 29 19 51 50
108 71 160 71 175 0 9 4 21 10 27 5 5 19 36 30 69 19 56 29 85 81 255 12 36
27 94 35 129 8 35 19 71 23 80 5 9 12 43 16 76 4 33 12 71 17 85 9 23 37 190
59 355 16 123 23 656 10 840 -14 205 -68 548 -103 654 -6 19 -17 60 -24 90
-16 68 -48 183 -64 231 -66 190 -108 301 -150 395 -10 22 -30 67 -45 100 -15
33 -31 67 -36 75 -5 8 -14 26 -19 40 -6 14 -15 32 -20 40 -6 8 -15 26 -20 40
-6 14 -15 32 -20 40 -6 8 -17 29 -26 45 -8 17 -26 48 -39 70 -14 22 -30 51
-37 65 -7 14 -21 33 -30 42 -10 10 -18 22 -18 27 0 10 -112 181 -138 211 -7 8
-33 42 -57 75 -24 33 -50 67 -58 75 -7 8 -53 65 -102 125 -113 139 -377 402
-520 520 -60 50 -117 97 -126 105 -9 8 -41 32 -70 53 -30 21 -91 65 -137 98
-45 32 -85 59 -87 59 -3 0 -36 20 -73 44 -86 56 -254 150 -362 203 -160 79
-257 123 -271 123 -8 0 -23 6 -34 14 -11 7 -36 17 -55 21 -19 4 -46 13 -60 20
-24 13 -74 30 -170 60 -25 7 -63 21 -85 29 -22 8 -49 15 -59 16 -11 0 -47 8
-80 19 -108 33 -249 64 -416 92 -36 5 -108 17 -160 26 -74 13 -182 17 -485 18
-214 2 -408 1 -430 -1z m2543 -1860 c21 -15 22 -20 22 -208 0 -168 2 -195 16
-200 9 -3 73 -6 143 -6 98 0 132 -3 149 -15 12 -9 59 -20 104 -24 46 -5 101
-16 123 -24 22 -9 58 -16 79 -17 22 0 47 -7 56 -15 9 -8 39 -18 66 -21 27 -4
59 -13 71 -20 13 -8 44 -17 70 -21 27 -3 62 -15 78 -25 17 -10 40 -18 51 -18
12 0 27 -6 33 -14 7 -8 28 -17 49 -21 20 -4 44 -13 52 -20 8 -7 25 -16 38 -19
26 -8 30 -47 8 -65 -8 -7 -18 -27 -21 -44 -4 -18 -13 -39 -20 -47 -7 -8 -16
-31 -20 -50 -4 -19 -13 -42 -20 -50 -7 -8 -16 -29 -20 -47 -3 -17 -12 -37 -20
-43 -7 -6 -16 -29 -20 -50 -4 -21 -13 -44 -21 -51 -8 -6 -14 -22 -14 -34 0
-12 -9 -34 -20 -48 -11 -14 -20 -33 -20 -42 0 -9 -11 -37 -25 -63 -14 -26 -25
-54 -25 -63 0 -9 -6 -22 -14 -28 -7 -6 -16 -28 -20 -49 -4 -20 -19 -52 -35
-71 -28 -32 -30 -33 -52 -17 -13 9 -30 16 -39 16 -9 0 -33 9 -55 20 -22 11
-46 20 -55 20 -9 0 -24 6 -35 14 -11 7 -36 17 -55 21 -19 4 -44 13 -55 20 -11
7 -38 16 -59 20 -21 3 -48 12 -60 20 -12 7 -43 15 -70 19 -27 3 -59 12 -70 20
-12 7 -52 16 -90 20 -38 4 -83 14 -100 23 -27 14 -73 17 -327 17 -264 1 -299
-1 -315 -16 -11 -9 -30 -19 -44 -23 -40 -10 -78 -50 -85 -89 -4 -20 -11 -39
-16 -42 -14 -8 -10 -69 6 -100 8 -16 15 -36 15 -45 0 -21 90 -109 111 -109 10
0 26 -8 36 -19 10 -10 29 -22 43 -26 14 -4 32 -13 40 -20 8 -7 30 -16 48 -20
18 -4 36 -13 39 -21 3 -8 18 -14 33 -14 15 0 39 -9 52 -20 14 -10 44 -22 68
-26 23 -4 44 -12 46 -19 3 -7 27 -16 54 -19 27 -4 53 -13 58 -21 4 -9 29 -17
57 -20 28 -4 55 -13 61 -20 6 -8 30 -17 54 -20 23 -3 54 -14 68 -25 13 -11 37
-20 52 -20 15 0 33 -7 40 -15 7 -8 28 -17 49 -21 20 -4 47 -15 60 -25 13 -11
33 -19 45 -19 12 0 29 -9 39 -20 9 -11 27 -20 40 -20 12 0 30 -9 40 -20 9 -11
28 -20 42 -20 14 0 25 -5 25 -11 0 -5 17 -17 38 -26 20 -8 39 -18 42 -22 3 -3
24 -18 48 -34 23 -15 61 -39 84 -54 37 -25 220 -201 258 -248 16 -21 42 -65
64 -112 9 -17 20 -34 25 -37 5 -4 13 -21 17 -39 3 -17 13 -41 20 -52 8 -11 14
-27 14 -37 0 -10 10 -46 22 -80 21 -59 23 -79 22 -298 0 -188 -3 -242 -16
-270 -8 -20 -18 -56 -22 -81 -4 -26 -13 -55 -21 -65 -8 -11 -15 -27 -15 -36 0
-21 -14 -52 -45 -103 -13 -22 -30 -51 -37 -65 -21 -41 -50 -80 -87 -120 -20
-21 -50 -53 -66 -71 -17 -19 -49 -49 -71 -68 -23 -19 -59 -49 -80 -68 -21 -18
-53 -38 -71 -44 -17 -5 -34 -16 -37 -24 -3 -8 -17 -15 -31 -15 -14 0 -33 -9
-42 -20 -10 -11 -27 -20 -38 -20 -11 0 -31 -7 -44 -17 -13 -9 -44 -20 -69 -25
-25 -4 -53 -15 -62 -23 -9 -8 -32 -15 -51 -15 -19 0 -52 -9 -73 -21 -27 -14
-65 -22 -128 -26 -66 -5 -95 -11 -114 -25 l-24 -19 0 -269 c0 -256 -1 -270
-19 -280 -26 -13 -607 -14 -616 0 -3 6 -6 129 -5 274 0 183 -3 267 -11 271 -6
4 -59 9 -117 10 -59 2 -120 9 -137 15 -16 7 -76 16 -131 20 -63 5 -114 15
-135 26 -19 9 -65 19 -104 22 -39 2 -77 11 -86 19 -9 7 -40 16 -70 20 -30 3
-68 14 -85 24 -17 11 -49 19 -71 19 -24 0 -46 6 -53 15 -7 8 -28 17 -49 21
-20 4 -50 15 -67 25 -17 11 -42 19 -56 19 -13 0 -29 5 -36 12 -7 7 -27 17 -44
22 l-33 11 -3 480 c-1 264 0 490 3 503 6 26 37 29 75 7 14 -8 36 -19 50 -25
27 -12 82 -37 153 -70 24 -11 50 -20 59 -20 9 0 21 -7 28 -15 7 -8 22 -15 34
-15 12 0 39 -9 61 -20 22 -11 48 -20 60 -20 11 0 36 -8 55 -18 19 -11 55 -22
80 -26 24 -4 51 -13 60 -20 8 -7 38 -16 67 -19 29 -3 62 -12 75 -20 13 -8 49
-18 81 -21 32 -4 71 -12 85 -20 15 -7 67 -16 116 -20 50 -4 105 -14 124 -22
51 -21 423 -20 456 1 12 8 45 18 72 21 27 4 56 12 64 19 8 7 25 16 38 19 12 4
22 11 22 16 0 5 9 17 19 27 28 26 43 128 30 200 -9 46 -18 63 -52 95 -23 22
-55 46 -72 54 -16 8 -48 26 -70 39 -22 14 -51 29 -65 35 -14 6 -43 20 -66 31
-22 10 -48 19 -57 19 -10 0 -20 7 -23 15 -4 8 -18 15 -33 15 -14 0 -40 8 -56
18 -17 11 -47 22 -67 26 -21 4 -41 13 -45 20 -5 7 -25 16 -47 19 -21 3 -46 12
-55 20 -9 8 -33 17 -55 20 -21 3 -46 12 -55 20 -9 8 -34 17 -56 20 -22 4 -44
13 -50 20 -5 8 -26 17 -46 21 -21 3 -42 13 -49 21 -7 8 -28 17 -49 21 -20 4
-44 15 -54 25 -10 11 -27 19 -38 19 -12 0 -32 9 -46 20 -14 11 -33 20 -43 20
-9 0 -25 9 -35 20 -10 11 -26 20 -35 20 -10 0 -23 7 -30 15 -6 8 -21 17 -32
21 -21 6 -88 50 -98 62 -3 4 -32 25 -64 47 -79 53 -187 161 -216 214 -10 20
-20 32 -65 82 -8 9 -15 23 -15 31 0 8 -9 27 -20 41 -11 14 -23 40 -26 59 -4
18 -14 41 -22 50 -8 10 -17 41 -20 70 -2 29 -12 61 -21 72 -14 16 -16 53 -16
290 0 242 2 275 18 299 9 14 17 44 17 65 0 23 8 49 18 63 11 13 22 39 25 57 4
19 16 45 27 59 11 14 20 32 20 39 0 8 4 14 9 14 5 0 14 14 20 30 12 35 187
212 251 254 25 16 56 37 70 46 14 10 37 21 50 25 14 4 32 13 40 20 8 7 26 16
40 20 14 4 32 13 40 20 8 7 32 15 54 18 21 3 46 12 55 20 9 8 37 17 64 20 26
4 57 13 70 21 12 7 53 17 91 20 38 4 78 13 90 21 14 10 47 15 106 15 54 0 91
5 98 12 9 9 12 69 12 208 0 108 3 200 7 203 3 4 137 7 297 7 248 0 295 -2 314
-16z m-4094 -270 c3 -9 6 -789 6 -1734 l0 -1717 41 -7 c22 -4 406 -6 852 -6
657 1 812 -1 818 -12 14 -22 11 -932 -3 -946 -9 -9 -345 -12 -1449 -12 -791 0
-1444 3 -1453 6 -15 6 -16 210 -16 2213 0 1703 3 2210 12 2219 9 9 156 12 599
12 526 0 587 -2 593 -16z"/>
</g>
</svg>
